<?xml version="1.0" encoding="utf-8"?>
<!-- Generator: Adobe Illustrator 28.3.0, SVG Export Plug-In . SVG Version: 6.00 Build 0)  -->
<svg version="1.1" id="Layer_1" xmlns="http://www.w3.org/2000/svg" xmlns:xlink="http://www.w3.org/1999/xlink" x="0px" y="0px"
	 viewBox="0 0 57 157" style="enable-background:new 0 0 57 157;" xml:space="preserve">
<style type="text/css">
	.st0{fill:#DFD500;}
</style>
<path class="st0" d="M53.3,150c-0.5-2.3-1.2-4.5-0.5-7c0.5-1.8-0.1-3.8,0.5-5.6c0.1-0.3-0.2-0.8-0.3-1.2c-0.7-3-1.6-5.9-1.9-8.9
	c-0.3-2.3-0.8-4.5-1.6-6.7c-0.3-0.8-0.6-1.7-0.9-2.6c-0.7-2.1-1.3-4.2-1.2-6.5c0-1.7-0.2-3.4-0.8-5.1c-1-2.6-1.2-5.3-1-8.2
	c0.7-0.8,1.2-1.5,1.9-2.1c2.6-2.4,3-5.4,2.3-8.6c-0.2-1-0.2-1.9,0.2-2.8c0.8-2,1.3-4,0.7-6.2c-0.2-0.8-0.2-1.6,0-2.4
	c0.6-2.5,0.5-5.1,0.1-7.6c-0.2-1.3-0.4-2.6,0-3.9c0.3-0.9,0.4-1.9,0.1-2.7c-0.5-1.7-0.3-3.5-0.4-5.2c0-0.8,0-1.7-0.1-2.5
	c-0.3-2.9-0.7-5.7-0.8-8.6c-0.1-1.8-0.3-3.6-0.6-5.4c-0.3-1.5-0.7-3.2-2.2-4c-1.2-0.6-2.2-1.7-3.6-2c-0.6-0.1-1.2-0.5-1.5-1
	c0-1.3-0.2-2.5,0-3.6c0.4-2.4,0.3-4.7-0.1-7.1c-0.7-3.8-1.9-7.5-3.8-10.9c-1.1-1.9-2.6-3.4-5-3.8c-2.3,0.5-4.7,1-7.1,1.5
	c-1.8,1.6-3.1,3.5-4.3,5.5c-0.7,1.2-1.5,2.4-1.7,3.8c-0.5,2.8-1.2,5.7-1.1,8.6c0,0.6-0.1,1.1-0.2,1.7C18,31,16.5,32.1,15,33.3
	c-0.8,0.6-1.8,0.9-1.9,2.1c0,0.4-0.4,0.5-0.6,0.7c-1,0.8-1.9,1.8-3.1,2.5c-1,0.7-1.9,1.6-2.1,2.9C6.8,44,5.7,46.3,6,48.8
	c0.1,0.5-0.2,1-0.3,1.4c-0.6,3.2-1,6.5-0.2,9.8c0.1,0.5,0.1,1-0.2,1.4c-0.3,0.5-0.4,1-0.3,1.5c0.4,2.9,0.2,5.8-0.4,8.6
	C4,74,4.1,76.6,3.8,79.1c-0.3,2.8-0.5,5.6,0.3,8.4c0.6,2,1,4.1,1.1,6.1c0.5,0.7,0.8,1.2,1.3,1.7s0.9,1.2,1.6,1.5
	c1.1,0.4,2.7,2.2,3.1,3.3c0.4,1.1,0.8,2.2,0.9,3.3c0.7,4,1.3,7.9,1.9,11.9c0.1,0.8,0.2,1.7-0.2,2.4c-0.3,0.6-0.3,1.1-0.2,1.7
	c0.2,2,0.2,4.1,1,6.1c0.3,0.8,0.5,1.6,0.4,2.4c-0.1,1.1,0.1,2.2,0.1,3.2c0,1.4,0.2,2.6,1.1,3.7c0.7,0.8,0.6,1.7,0.3,2.6
	c-0.2,0.5-0.5,1-0.7,1.6c0.7,1.2,1.5,2.3,1.6,3.9c0,0.6,0.2,1.5,0.9,2c0.4,0.3,0.6,0.8,0.6,1.3c0,2,0.2,4-0.2,5.9
	c-0.3,1.3-0.1,2.4,0.1,3.6c0.2,1,0.7,1.4,1.7,1.4c1.7,0,3.3,0.1,5,0c2.1,0,2.8-1,2.2-3c-0.4-1.3-0.7-2.6-1.3-3.7
	c-1-1.9-1-3.9-0.5-5.9c0.5-1.8,0.4-3.6-0.2-5.3c-0.2-0.5-0.5-1-0.5-1.6c0-4.8,0-9.6,0.2-14.4c0-1.2,0-2.5-0.3-3.6
	c-0.3-0.9-0.4-1.8-0.4-2.7c0.1-2.6,0.4-5.1,0.5-7.7c0.1-4.2,0.1-8.3,0.1-12.4c0-1.6,0.5-3.1,0.4-4.7c0-0.5,0.3-0.9,0.9-1.2
	c0.7,0.7,1.1,1.7,1.4,2.6c1.8,4.2,3.5,8.5,5.2,12.8c1,2.4,1.9,4.9,2.8,7.3c1.1,2.9,2.3,5.8,3.3,8.7c1.5,4.4,3.2,8.7,4.3,13.3
	c0.2,0.7,0.5,1.4,0.5,2.1c0.1,3,1.5,5.6,2.9,8.3c-0.1,0.2-0.2,0.6-0.3,0.9c-0.2,2.2-0.4,4.4-0.4,6.7c0,1.3,0.2,2.6,1.2,3.7
	c2,0.2,3.9,0.1,5.8,0.1c0.8-1.3,0.8-2.5,0.8-3.8C54,152.2,53.5,151.1,53.3,150L53.3,150z M14.1,64.7c-0.9,1-0.5,2.2-0.7,3.7
	c-0.4,0.3-1.1,0.8-1.8,1.3c-0.5-0.7-0.4-1.6-0.2-2.6c0.4-1.8,0.6-3.7,1.4-5.4c0.6-1.5,0.2-3.2,0.6-4.8c0.2-1.1,0.5-2.2,0.8-3.5
	c2.6,2.5,2.1,5.7,2.5,8.6C15.8,62.9,14.9,63.8,14.1,64.7z M44.8,85.4c-0.7-0.2-0.9-0.9-0.9-1.7c0-1.8-0.1-3.7,0-5.5
	c0.1-1.3-0.2-2.7-0.5-3.9c-0.8-3-0.3-6.1-0.3-9.1c0-0.1,0.2-0.2,0.5-0.5c0.9,1.5,1.2,3,1.2,4.7c0,2.1-0.3,4.4,0.7,6.5
	c0.2,0.4,0.3,0.8,0.3,1.2c0,2.6,0.2,5.1-0.4,7.6C45.4,85.1,45.3,85.3,44.8,85.4L44.8,85.4z"/>
</svg>
